<?xml version="1.0" encoding="UTF-8"?>
<svg id="Calque_9" data-name="Calque 9" xmlns="http://www.w3.org/2000/svg" viewBox="0 0 211.1 211.1">
  <defs>
    <style>
      .cls-1 {
        fill: #1c1c1c;
      }

      .cls-2 {
        fill: #ed1271;
      }

      .cls-3 {
        fill: #ff0;
      }

      .cls-4 {
        fill: #0f3;
      }
    </style>
  </defs>
  <polygon id="fond_vert" class="cls-4" points="197.83 123.74 153.62 74.51 150.74 38.86 126.74 59.3 126.74 59.3 105.55 70.47 87.46 59.84 87.46 59.84 59.51 38.86 57.97 74.51 13.27 126.09 70.58 150.97 90.62 137.52 79.56 172.24 90.62 172.24 124.69 172.24 135.71 172.24 123.51 137.52 143.87 151.61 197.83 123.74"/>
  <g id="head">
    <polygon id="nose" class="cls-3" points="112.29 106.74 101.77 106.74 84.2 168.3 130.86 168.3 112.29 106.74"/>
    <polygon id="face_left" class="cls-3" points="192.14 122.79 76.95 58.09 18.96 124.99 192.14 122.79"/>
    <polygon id="face_right" class="cls-2" points="18.96 124.99 134.03 58.09 192.14 122.79 18.96 124.99"/>
    <g id="black">
      <polygon id="right" class="cls-1" points="192.14 122.79 143.66 147.83 110.97 126.38 131.32 94.06 192.14 122.79"/>
      <polygon id="left" class="cls-1" points="18.96 124.99 69.89 147.83 104.07 126.26 82.22 94.06 18.96 124.99"/>
    </g>
    <g id="eyes">
      <circle id="right-2" data-name="right" class="cls-3" cx="128.57" cy="114.96" r="5.98"/>
      <circle id="left-2" data-name="left" class="cls-3" cx="84.63" cy="114.96" r="5.98"/>
    </g>
    <g id="ears">
      <polygon id="left-3" data-name="left" class="cls-2" points="60.91 76.6 62.26 45.38 85.38 62.83 60.91 76.6"/>
      <polygon id="right-3" data-name="right" class="cls-3" points="150.65 76.6 148.17 45.83 126.74 62.33 150.65 76.6"/>
    </g>
    <polygon id="nose-2" data-name="nose" class="cls-2" points="91.55 168.3 107.53 148.7 123.51 168.3 91.55 168.3"/>
  </g>
</svg>